<?xml version="1.0" standalone="no"?>
<!DOCTYPE svg PUBLIC "-//W3C//DTD SVG 20010904//EN"
 "http://www.w3.org/TR/2001/REC-SVG-20010904/DTD/svg10.dtd">
<svg version="1.0" xmlns="http://www.w3.org/2000/svg"
 width="200.000000pt" height="200.000000pt" viewBox="0 0 200.000000 200.000000"
 preserveAspectRatio="xMidYMid meet">

<g transform="translate(0.000000,200.000000) scale(0.100000,-0.100000)"
fill="#000000" stroke="none">
<path d="M900 1994 c-235 -29 -435 -125 -603 -291 -158 -155 -250 -343 -284
-578 -58 -395 147 -796 512 -1000 243 -136 557 -159 822 -59 272 102 485 316
587 589 80 212 80 477 0 692 -100 268 -317 485 -586 587 -127 47 -329 74 -448
60z m323 -511 c122 -86 266 -188 320 -226 53 -38 97 -75 97 -83 0 -12 -99 -14
-641 -14 -720 0 -688 -4 -579 71 30 21 172 121 315 223 143 102 262 185 263
186 2 0 104 -71 225 -157z m337 -366 c0 -34 -28 -67 -56 -67 l-24 0 0 -210 0
-210 25 -6 c28 -7 55 -39 55 -66 0 -17 -30 -18 -560 -18 -530 0 -560 1 -560
18 0 27 27 59 55 66 l25 6 0 210 0 210 -24 0 c-28 0 -56 33 -56 67 l0 22 560
1 560 0 0 -23z m18 -620 c10 -12 15 -55 13 -110 l-1 -27 -592 2 -593 3 1 58
c1 31 7 64 14 72 11 13 91 15 580 15 442 0 570 -3 578 -13z"/>
<path d="M942 1530 c-62 -38 -70 -114 -18 -166 28 -28 42 -34 76 -34 34 0 48
6 76 34 36 36 43 71 24 120 -11 31 -65 66 -100 66 -14 0 -40 -9 -58 -20z m123
-42 c29 -34 31 -48 10 -87 -47 -93 -182 -38 -154 63 19 67 97 80 144 24z"/>
<path d="M700 1260 c0 -6 107 -10 300 -10 193 0 300 4 300 10 0 6 -107 10
-300 10 -193 0 -300 -4 -300 -10z"/>
<path d="M520 1090 c0 -7 167 -10 480 -10 313 0 480 3 480 10 0 7 -167 10
-480 10 -313 0 -480 -3 -480 -10z"/>
<path d="M667 1044 c-4 -4 -7 -99 -7 -211 l0 -203 65 0 65 0 -2 208 -3 207
-55 3 c-31 2 -59 0 -63 -4z"/>
<path d="M938 840 l-3 -210 63 0 62 0 0 200 c0 110 1 203 3 208 1 4 -26 8 -60
10 l-62 3 -3 -211z"/>
<path d="M1217 1044 c-4 -4 -7 -99 -7 -211 l0 -203 65 0 65 0 -2 208 -3 207
-55 3 c-31 2 -59 0 -63 -4z"/>
<path d="M540 580 c0 -7 160 -10 460 -10 300 0 460 3 460 10 0 7 -160 10 -460
10 -300 0 -460 -3 -460 -10z"/>
<path d="M460 441 c0 -5 7 -12 16 -15 20 -8 1028 -8 1048 0 9 3 16 10 16 15 0
5 -230 9 -540 9 -310 0 -540 -4 -540 -9z"/>
</g>
</svg>
